<?xml version="1.0" encoding="utf-8"?>
<!-- Generator: Adobe Illustrator 24.0.2, SVG Export Plug-In . SVG Version: 6.00 Build 0)  -->
<svg version="1.1" id="Layer_1" xmlns="http://www.w3.org/2000/svg" xmlns:xlink="http://www.w3.org/1999/xlink" x="0px" y="0px"
	 viewBox="0 0 582 329" style="enable-background:new 0 0 582 329;" xml:space="preserve">
<style type="text/css">
	.st0{opacity:0.2;fill:#02B2F8;enable-background:new    ;}
	.st1{opacity:0.2;fill:#49DDFF;enable-background:new    ;}
	.st2{opacity:0.2;fill:#0080CF;enable-background:new    ;}
</style>
<path class="st0" d="M242.6,196.5c-16.4-9.7-36.7-9.9-53.3-0.6l-40,22.5l-48,23.3L0,285.5L0.4,329h35.3h448.8l32.5-1.4l-151.3-69.7
	L242.6,196.5z"/>
<path class="st1" d="M97,227.7c-11.3-6.7-25.3-6.8-36.7-0.4L12,254.5l-11.6,5.6v68.7h303.8l-75.8-34.9L97,227.7z"/>
<path class="st2" d="M514.5,228.9c-14.1-7.9-31.3-7.7-45.2,0.5l-127.2,63.7l-77.5,35.8H582V264L514.5,228.9z"/>
</svg>
